Coordinates
version=1
nRows=27
nColumns=12
inDegrees=yes

Units are S.I. units (second, meters, Newtons, ...)
Angles are in degrees

endheader
time	SC_y	SC_z	SC_x	AC_y	AC_z	AC_x	GH_y	GH_z	GH_yy	EL_x	PS_y
       0.0              -15.66         0.4092          60.99           38.3         0.4676          3.053          12.69          25.42          -38.0          35.12          109.7
   0.02165              -15.66         0.4121          60.98           38.3         0.4671          3.051          12.67          25.43         -37.99          35.13          109.7
   0.04329              -15.66         0.4151          60.98           38.3         0.4666          3.048          12.66          25.43         -37.98          35.15          109.7
   0.06494              -15.67         0.4184          60.97           38.3          0.466          3.046          12.64          25.44         -37.97          35.16          109.7
   0.08658              -15.67         0.4219          60.97           38.3         0.4653          3.044          12.63          25.45         -37.97          35.18          109.7
    0.1082              -15.67         0.4256          60.96           38.3         0.4646          3.041          12.61          25.45         -37.96           35.2          109.7
    0.1299              -15.67         0.4295          60.95           38.3         0.4639          3.039          12.59          25.46         -37.94          35.22          109.6
    0.1515              -15.67         0.4338          60.95           38.3         0.4632          3.036          12.57          25.47         -37.93          35.24          109.6
    0.1732              -15.67         0.4383          60.94           38.3         0.4623          3.032          12.55          25.48         -37.92          35.26          109.6
    0.1948              -15.68         0.4432          60.93          38.31         0.4614          3.029          12.52          25.49         -37.91          35.28          109.6
    0.2165              -15.68         0.4484          60.92          38.31         0.4605          3.026           12.5           25.5         -37.89          35.31          109.6
    0.2381              -15.68          0.454          60.91          38.31         0.4595          3.022          12.47          25.51         -37.88          35.34          109.6
    0.2597              -15.68         0.4601           60.9          38.31         0.4584          3.018          12.44          25.52         -37.86          35.37          109.6
    0.2814              -15.69         0.4666          60.89          38.31         0.4572          3.013          12.41          25.53         -37.84           35.4          109.6
     0.303              -15.69         0.4737          60.88          38.31         0.4559          3.008          12.38          25.55         -37.83          35.43          109.6
    0.3247              -15.69         0.4814          60.86          38.32         0.4545          3.003          12.34          25.56          -37.8          35.47          109.6
    0.3463               -15.7         0.4897          60.85          38.32         0.4529          2.997           12.3          25.58         -37.78          35.51          109.6
     0.368               -15.7         0.4988          60.83          38.32         0.4513          2.991          12.26          25.59         -37.76          35.56          109.6
    0.3896               -15.7         0.5088          60.81          38.32         0.4495          2.984          12.21          25.61         -37.73           35.6          109.6
    0.4113              -15.71         0.5196          60.79          38.33         0.4475          2.976          12.16          25.63          -37.7          35.66          109.6
    0.4329              -15.71         0.5316          60.77          38.33         0.4453          2.968           12.1          25.66         -37.67          35.72          109.6
    0.4546              -15.72         0.5447          60.75          38.33         0.4429          2.959          12.03          25.68         -37.63          35.78          109.5
    0.4762              -15.72         0.5592          60.72          38.34         0.4403          2.949          11.96          25.71         -37.59          35.85          109.5
    0.4979              -15.73         0.5753           60.7          38.34         0.4373          2.938          11.89          25.74         -37.55          35.93          109.5
    0.5195              -15.74         0.5932          60.66          38.35         0.4341          2.926           11.8          25.77          -37.5          36.02          109.5
    0.5411              -15.75         0.6131          60.63          38.35         0.4304          2.912           11.7          25.81         -37.45          36.11          109.5
    0.5628              -15.76         0.6355          60.59          38.36         0.4263          2.897           11.6          25.85         -37.39          36.22          109.5
